<svg aria-hidden="true" style="position: absolute; width: 0; height: 0; overflow: hidden;" version="1.1" xmlns="http://www.w3.org/2000/svg" xmlns:xlink="http://www.w3.org/1999/xlink">
<defs>
<symbol id="icon-mobile-left-btn" viewBox="0 0 25 32">
<path d="M0 0h0.577v6.641h-0.577z"></path>
<path d="M0 0h25.358v0.604h-25.358zM0 32h0.577v-6.642h-0.577z"></path>
<path d="M0 32h25.358v-0.604h-25.358z"></path>
</symbol>
<symbol id="icon-mobile-right-btn" viewBox="0 0 25 32">
<path d="M25.358 0h-0.577v6.641h0.577z"></path>
<path d="M25.358 0h-25.358v0.604h25.358zM25.358 32h-0.577v-6.642h0.577z"></path>
<path d="M25.358 32h-25.358v-0.604h25.358z"></path>
</symbol>
<symbol id="icon-tablet-left-btn" viewBox="0 0 22 32">
<path d="M0 0h0.509v7.040h-0.509z"></path>
<path d="M0 0h22.4v0.64h-22.4zM0 32h0.509v-7.040h-0.509z"></path>
<path d="M0 32h22.4v-0.64h-22.4z"></path>
</symbol>
<symbol id="icon-tablet-right-btn" viewBox="0 0 22 32">
<path d="M22.4 0h-0.509v7.040h0.509z"></path>
<path d="M22.4 0h-22.4v0.64h22.4zM22.4 32h-0.509v-7.040h0.509z"></path>
<path d="M22.4 32h-22.4v-0.64h22.4z"></path>
</symbol>
<symbol id="icon-desktop-left-btn" viewBox="0 0 20 32">
<path d="M0 0h0.451v4.958h-0.451z"></path>
<path d="M0 0h19.831v0.451h-19.831zM0 32h0.451v-4.958h-0.451z"></path>
<path d="M0 32h19.831v-0.451h-19.831z"></path>
</symbol>
<symbol id="icon-desktop-right-btn" viewBox="0 0 20 32">
<path d="M19.831 0h-0.451v4.958h0.451z"></path>
<path d="M19.831 0h-19.831v0.451h19.831zM19.831 32h-0.451v-4.958h0.451z"></path>
<path d="M19.831 32h-19.831v-0.451h19.831z"></path>
</symbol>
<symbol id="icon-rectangle" viewBox="0 0 32 32">
<path d="M15.083 0l15.086 15.086-15.086 15.083-15.083-15.083z"></path>
</symbol>
<symbol id="icon-checkbox" viewBox="0 0 32 32">
<path fill="none" stroke="#fff" style="stroke: var(--color1, #fff)" stroke-linejoin="miter" stroke-linecap="butt" stroke-miterlimit="4" stroke-width="1.3333" d="M0.667 0.667h30.667v30.667h-30.667z"></path>
<path fill="#fff" style="fill: var(--color1, #fff)" opacity="0.1" d="M5.333 5.333h21.333v21.333h-21.333z"></path>
</symbol>
<symbol id="icon-checkbox-checked" viewBox="0 0 32 32">
<path fill="none" stroke="#fff" style="stroke: var(--color1, #fff)" stroke-linejoin="miter" stroke-linecap="butt" stroke-miterlimit="4" stroke-width="1.3333" d="M0.667 0.667h30.667v30.667h-30.667z"></path>
<path fill="#fff" style="fill: var(--color1, #fff)" d="M5.333 5.333h21.333v21.333h-21.333z"></path>
</symbol>
<symbol id="scroll-up" viewBox="0 0 32 32">
<path d="M9.92 2.816c-3.84 1.792-5.568 3.584-7.296 7.424-2.304 5.056-1.216 11.712 2.688 15.936 2.112 2.304 7.36 4.544 10.688 4.544s8.576-2.24 10.688-4.544c2.176-2.368 4.032-7.040 4.032-10.176 0-3.328-2.24-8.576-4.544-10.688-2.368-2.176-7.040-4.032-10.176-4.032-1.728 0-4.16 0.64-6.080 1.536zM21.44 3.776c8.192 3.712 10.496 14.272 4.608 20.992-6.464 7.36-18.112 5.632-22.272-3.328-5.056-10.944 6.656-22.656 17.664-17.664z"></path>
<path d="M12.8 10.56c-3.264 3.328-3.008 4.8 0.32 1.6l2.24-2.176v7.168c0 4.352 0.256 7.168 0.64 7.168s0.64-2.816 0.64-7.168v-7.168l2.24 2.176c3.328 3.2 3.584 1.728 0.32-1.6-1.536-1.6-3.008-2.88-3.2-2.88s-1.664 1.28-3.2 2.88z"></path>
</symbol>
</defs>
</svg>
